<svg xmlns="http://www.w3.org/2000/svg" xmlns:xlink="http://www.w3.org/1999/xlink" version="1.0" x="0px" y="0px" viewBox="0 0 100 125" enable-background="new 0 0 100 100" xml:space="preserve"><path d="M85.0712967,45.067318L47.5246086,6L9.7591896,45.067318V93.5h6.9764442V65.4970779h-0.9747086v12.4250412h-3.6537428  V62.3419456c0-1.3038254,1.0593348-2.3671341,2.3652058-2.3671341h14.9933252c1.3021393,0,2.3653259,1.0633087,2.3653259,2.3671341  v15.5801735h-3.6555481V65.4970779h-0.9747086V93.5h13.6018639V57.2745895h-1.2326813v15.7032013h-4.6187019v-19.690155  c0-1.6525612,1.3405418-2.9932213,2.9891319-2.9932213h18.948616c1.6488304,0,2.9893723,1.3406601,2.9893723,2.9932213v19.690155  h-4.6187019V57.2745895h-1.2326813V93.5h13.6019821V65.4970779H66.654274v12.4250412h-3.6516953V62.3419456  c0-1.3038254,1.0553589-2.3671341,2.3612366-2.3671341h14.9924774c1.3058701,0,2.3652039,1.0633087,2.3652039,2.3671341v15.5801735  H79.065834V65.4970779h-0.9707413V93.5h6.9762039V45.067318z M21.969593,58.9907112  c-2.3430576,0-4.242157-1.8990974-4.242157-4.2392654c0-2.3420944,1.8990993-4.2432404,4.242157-4.2432404  c2.3420925,0,4.241312,1.9011459,4.241312,4.2432404C26.2109051,57.0916138,24.3116856,58.9907112,21.969593,58.9907112z   M47.4130173,49.0502968c-2.9584351,0-5.3545799-2.3998756-5.3545799-5.3583107  c0-2.9622841,2.3961449-5.3621597,5.3545799-5.3621597c2.9621658,0,5.3620415,2.3998756,5.3620415,5.3621597  C52.7750587,46.6504211,50.3751831,49.0502968,47.4130173,49.0502968z M72.860054,58.9907112  c-2.3420944,0-4.2373428-1.8990974-4.2373428-4.2392654c0-2.3420944,1.8952484-4.2432404,4.2373428-4.2432404  s4.241188,1.9011459,4.241188,4.2432404C77.1012421,57.0916138,75.2021484,58.9907112,72.860054,58.9907112z"/><text x="0" y="115" fill="#000000" font-size="5px" font-weight="bold" font-family="'Helvetica Neue', Helvetica, Arial-Unicode, Arial, Sans-serif">Created by Alexander Skowalsky</text><text x="0" y="120" fill="#000000" font-size="5px" font-weight="bold" font-family="'Helvetica Neue', Helvetica, Arial-Unicode, Arial, Sans-serif">from the Noun Project</text></svg>