<?xml version="1.0" encoding="utf-8"?><!DOCTYPE svg PUBLIC "-//W3C//DTD SVG 1.1//EN" "http://www.w3.org/Graphics/SVG/1.1/DTD/svg11.dtd"><svg version="1.1" xmlns="http://www.w3.org/2000/svg" xmlns:xlink="http://www.w3.org/1999/xlink" x="0px" y="0px" viewBox="0 0 73.894 125" enable-background="new 0 0 73.894 100" xml:space="preserve"><path fill="#010101" d="
	M68.759,0.001C57.947,0.087,0.009,0.112,0.009,0.112C-0.062,40.059,0.32,69.361,0.345,94.308L3.916,100h69.978V8.259h-2.12
	c-1.046-1.082-3.714-5.468-3.684-5.468c0.254-0.001,0.304,0.035,2.79,0C70.88,2.791,69.134,0.483,68.759,0.001L68.759,0.001z
	 M28.022,2.792c13.441-0.036,28.818-0.054,36.496,0c0,0.053,3.412,5.219,3.683,5.469L6.482,7.813l-3.46-4.911
	C3.022,2.903,14.582,2.821,28.022,2.792L28.022,2.792z M10.835,11.497h5.134v86.049h-5.134V11.497z"/><text x="0" y="115" fill="#000000" font-size="5px" font-weight="bold" font-family="'Helvetica Neue', Helvetica, Arial-Unicode, Arial, Sans-serif">Created by Dalpat Prajapati</text><text x="0" y="120" fill="#000000" font-size="5px" font-weight="bold" font-family="'Helvetica Neue', Helvetica, Arial-Unicode, Arial, Sans-serif">from the Noun Project</text></svg>